<?xml version="1.0"?>
<svg version="1.1" id="圖層_1" xmlns="http://www.w3.org/2000/svg" x="0" y="0" viewBox="0 0 100 100" xml:space="preserve"><path fill="#333" d="M36.2 10H25.7v65.4h-9.2L31 90l14.5-14.6h-9.3z"/><g><path d="M72.8 31.3h-9.6l-.7 2.1c-.2.6-.4 1.2-.5 1.8-.1.6-.2 1.2-.2 1.8 0 1.5.8 2.3 2.3 2.4v1.5h-9.6v-1.5c.6-.1 1-.3 1.5-.6.4-.3.8-.8 1.2-1.4.3-.6.7-1.4 1.1-2.5l9.4-25.1h6L81 35.1c.3 1.1.6 1.9.8 2.4.2.5.5.9.9 1.2.4.3.9.5 1.5.6v1.5H71.8v-1.5c.8-.1 1.4-.3 1.7-.7.4-.3.6-.8.6-1.5 0-.5-.1-1-.2-1.6-.1-.6-.3-1.3-.5-2.2l-.6-2zM64 28.6h8.1l-3.6-12.7L64 28.6z" fill="#f47e60"/></g><g><path d="M66.2 85h6.5c.8 0 1.5-.2 2.1-.5.6-.3 1-.9 1.5-1.6.4-.7.8-2 1.3-3.8h3.1v8.7H57.9v-1.5l14.5-26.8h-6.2c-1 0-1.8.2-2.4.5-.6.4-1.1.9-1.5 1.7-.4.8-.8 1.9-1.1 3.2h-3.1v-8.2h22.5v1.5L66.2 85z" fill="#f8b26a"/></g><metadata xmlns:d="https://loading.io/stock/"><d:name>sort</d:name><d:tags>ascend,dictionary,rank,order,increase,sort,web application</d:tags><d:license>by</d:license><d:slug>a5ghis</d:slug></metadata></svg>