<?xml version="1.0"?><svg version="1.1" id="圖層_1" xmlns="http://www.w3.org/2000/svg" x="0" y="0" viewBox="0 0 100 100" xml:space="preserve"><path d="M84.988 44.003h0c-.626-18.481-16.447-33.108-35.369-31.761-16.187 1.152-29.329 14.293-30.481 30.481-1.347 18.922 13.28 34.771 31.761 35.398H83.16c6.099 0 10.139-6.349 7.537-11.866-3.956-8.387-5.549-15.65-5.709-22.252z" stroke-width="3.5" stroke-miterlimit="10" fill="#f5e6c8" stroke="#333"/><path d="M37.457 42.308a3.758 3.758 0 0 1-3.758-3.758v-5.57a3.758 3.758 0 1 1 7.516 0v5.57a3.758 3.758 0 0 1-3.758 3.758z" fill="#333"/><path fill="none" stroke="#333" stroke-width="3.5" stroke-linecap="round" stroke-linejoin="round" stroke-miterlimit="10" d="M20.344 55.278L8.5 48.277"/><path fill="none" stroke="#333" stroke-width="3.5" stroke-linecap="round" stroke-linejoin="round" stroke-miterlimit="10" d="M20.344 55.278l-11.844 7"/><path fill="none" stroke="#333" stroke-width="3.5" stroke-linecap="round" stroke-linejoin="round" stroke-miterlimit="10" d="M52.595 78.121v9.724"/><path fill="none" stroke="#333" stroke-width="3.5" stroke-linecap="round" stroke-linejoin="round" stroke-miterlimit="10" d="M63.218 78.121v9.724"/><metadata xmlns:d="https://loading.io/stock/">
<d:name>bird</d:name>
<d:tags>bird,tweet,fly,chicken,duck,goose,animal</d:tags>
<d:license>by</d:license>
<d:slug>j2gkd6</d:slug>
</metadata></svg>