<?xml version="1.0"?><svg version="1.1" id="Layer_1" xmlns="http://www.w3.org/2000/svg" x="0" y="0" viewBox="0 0 100 100" xml:space="preserve"><g><path d="M89.033 36.976c.175 4.737-.793 9.48-2.637 13.837-.934 2.205-2.066 4.689-3.616 6.538-1.44 1.717-3.802 2.346-5.887 3.146-9.637 3.698-19.978 5.518-30.295 5.436A82.805 82.805 0 0 1 28.79 63.86c-2.91-.666-5.817-1.464-8.623-2.49-2.693-.984-4.249-3.376-5.567-5.851-3.607-6.77-4.568-14.883-2.772-22.341s6.308-14.208 12.433-18.827c1.853-1.397 3.865-2.615 6.062-3.361 2.139-.727 4.414-.993 6.672-.99 5.064.008 10.221 1.432 14.187 4.58.557-.769 1.406-1.269 2.256-1.692 7.618-3.789 17.265-2.69 24.198 2.241 6.932 4.931 11.082 13.344 11.397 21.847z" fill="#333"/><g><path d="M87.533 36.976c.045 6.325-1.44 15.093-6.385 19.569-4.412 3.994-12.935 5.397-18.65 6.475-12.881 2.431-26.892 1.928-39.38-2.239-13.463-4.493-12.308-25.3-6.606-35.365 3.04-5.367 8.213-10.97 14.21-12.98 6.62-2.219 14.171-.597 19.703 3.439.539.393 1.372.193 1.818-.235 6.113-5.858 17.662-3.876 24.01.368 7.006 4.686 10.757 12.724 11.28 20.968.122 1.917 3.123 1.931 3 0-.622-9.798-5.33-19.325-14.042-24.347-7.47-4.306-19.648-5.552-26.37.891l1.818-.235C39.308 4.07 23.924 9.214 15.557 21.308c-7.419 10.723-9.336 29.281.726 39.237 4.885 4.833 14.866 5.585 21.354 6.334 8.54.985 17.213.638 25.657-.966 4.789-.91 9.427-2.289 13.997-3.97 2.379-.876 4.746-1.654 6.549-3.531 5.026-5.233 6.742-14.51 6.693-21.436-.014-1.93-3.014-1.935-3 0z" fill="#333"/></g></g><g><path d="M26.827 34.424c1.484 2.611 1.273 5.889.333 8.741-.94 2.853-2.536 5.437-3.783 8.169a35.668 35.668 0 0 0-3.148 12.736c-.252 4.425.371 9.008 2.562 12.861 2.076 3.651 5.455 6.444 9.201 8.345 3.746 1.901 7.86 2.965 11.99 3.732 5.615 1.043 11.475 1.551 16.988.059 3.432-.929 6.63-2.612 9.531-4.667 5.157-3.653 9.632-8.931 10.355-15.21.432-3.752-.506-7.521-1.614-11.132-1.116-3.64-2.432-7.262-4.505-10.455-2.074-3.193-4.975-5.956-8.541-7.291" fill="#f4e6c8"/><g><path d="M25.532 35.181c2.479 5.552-1.25 10.536-3.45 15.396-1.418 3.132-2.429 6.413-2.959 9.814-.899 5.775-.587 12.114 2.373 17.296 6.408 11.22 23.368 14.843 35.282 13.634 10.694-1.085 22.973-9.221 25.293-20.302 1.354-6.469-1.053-13.611-3.595-19.506-2.351-5.453-5.978-10.095-11.522-12.497-1.753-.76-3.283 1.824-1.514 2.59 10.766 4.663 17.697 23.302 11.798 33.591-6.527 11.384-19.933 14.579-32.01 12.511-6.111-1.047-12.676-2.76-17.4-7.01-5.251-4.724-6.685-11.462-5.965-18.273.675-6.383 3.784-11.375 6.11-17.18 1.583-3.949 1.896-7.67.15-11.58-.786-1.758-3.372-.234-2.591 1.516z" fill="#333"/></g></g><g><g><path d="M27.887 41.519c4.456-.324 8.898.244 11.857 3.936 1.207 1.506 3.318-.628 2.121-2.121-3.409-4.253-8.806-5.19-13.978-4.814-1.914.138-1.929 3.14 0 2.999z" fill="#333"/></g></g><g><path d="M28.703 48.778c1.721-.842 3.551-1.544 5.464-1.659 1.913-.115 3.93.42 5.293 1.767.765.756 1.289 1.727 1.66 2.736.847 2.303 1.093 7.034-.271 9.294-1.445 2.394-5.777 2.477-7.016-.143-1.219-2.576-1.418-6.297-.544-8.991.605-1.865 2.136-3.776 4.087-3.579" fill="#333"/><g><path d="M29.46 50.073c3.309-1.55 7.961-2.645 9.947 1.395 1.031 2.097 1.226 5.046.659 7.303-.804 3.2-4.369 3.122-5.352.097-.767-2.361-1.085-9.056 2.66-9.165 1.926-.056 1.934-3.057 0-3-5.705.167-6.651 7.361-5.835 11.729.423 2.267 1.305 4.472 3.574 5.38 1.843.737 4.116.469 5.713-.718 3.472-2.579 2.957-9.115 1.431-12.618-2.638-6.057-9.277-5.352-14.311-2.994-1.747.819-.226 3.406 1.514 2.591z" fill="#333"/></g></g><g><g><path d="M51.289 45.412c5.33-3.104 11.047-4.779 17.209-5.013 1.924-.073 1.934-3.073 0-3-6.668.253-12.958 2.065-18.723 5.423-1.668.971-.159 3.565 1.514 2.59z" fill="#333"/></g></g><g><path d="M51.897 48.057c2.483-1.813 6.261-1.807 9.196-1.453a6.733 6.733 0 0 1 4.529 2.621c2.616 3.502.265 14.529-5.484 13.636-2.962-.46-3.308-4.245-3.293-6.701.017-2.882 1.088-5.791 3.142-7.845" fill="#333"/><g><path d="M52.654 49.352c2.997-1.882 9.796-2.604 11.926 1.018 1.135 1.93.639 4.926-.013 6.92-.732 2.24-3.825 6.46-5.745 2.57-1.607-3.256.01-8.04 2.226-10.485 1.294-1.428-.821-3.556-2.121-2.121-3.298 3.64-5.252 10.496-2.257 14.968 2.632 3.929 7.584 1.946 9.594-1.404 1.979-3.298 2.932-8.718.78-12.157-3.097-4.949-11.504-4.662-15.904-1.9-1.631 1.025-.127 3.622 1.514 2.591z" fill="#333"/></g></g><g><g><path d="M41.068 77.729c2.313-1.726 6.616-5.775 9.455-4.424 3.132 1.49 5.565 3.964 8.912 5.222 1.809.68 2.591-2.219.798-2.893-2.415-.907-4.478-2.267-6.567-3.747-1.356-.961-2.792-2.389-4.548-2.288-3.252.186-7.063 3.674-9.564 5.54-1.529 1.142-.035 3.747 1.514 2.59z" fill="#333"/></g></g><g><path d="M26.72 35.611a46.31 46.31 0 0 1 15.982 1.231c1.236-2.356 3.563-6.986 4.798-9.342.215 2.698 2.285 7.669 2.5 10.366 7.09-.26 11.267.46 18.161 2.134" fill="#f4e6c8"/><g><path d="M26.72 37.111c5.3-.414 10.398-.046 15.583 1.177.622.147 1.382-.09 1.694-.689 1.615-3.106 3.183-6.236 4.798-9.342l-2.742-.358c.489 3.537 2.011 6.83 2.5 10.366.087.628.853 1.116 1.446 1.101 6.102-.153 11.834.668 17.763 2.08 1.877.447 2.678-2.445.798-2.893-6.204-1.477-12.167-2.347-18.56-2.187l1.446 1.101c-.489-3.537-2.011-6.83-2.5-10.366-.179-1.292-2.186-1.427-2.742-.358-1.615 3.106-3.183 6.236-4.798 9.342l1.694-.689c-5.432-1.282-10.809-1.72-16.38-1.285-1.912.149-1.928 3.151 0 3z" fill="#333"/></g></g><circle cx="38.5" cy="52.5" r="2.5" fill="#fff" stroke="#333" stroke-miterlimit="10"/><circle cx="63.306" cy="52.614" r="2.5" fill="#fff" stroke="#333" stroke-miterlimit="10"/><ellipse cx="31.583" cy="65.689" rx="5.917" ry="3.477" fill="#e15c64"/><ellipse cx="65.806" cy="65.935" rx="5.917" ry="3.477" fill="#e15c64"/><metadata xmlns:d="https://loading.io/stock/">
<d:name>cartoonist</d:name>
<d:tags>cartoonist,animator,comic,manga,animation,cartoon,anime,caricaturist,sensei,acg</d:tags>
<d:license>by</d:license>
<d:slug>5dhrtx</d:slug>
</metadata></svg>