<?xml version="1.0"?><svg version="1.1" id="Layer_1" xmlns="http://www.w3.org/2000/svg" x="0" y="0" viewBox="0 0 100 100" xml:space="preserve"><linearGradient id="SVGID_1_" gradientUnits="userSpaceOnUse" x1="50" y1="23.071" x2="50" y2="78.568"><stop offset="0" stop-color="#f4e6c8"/><stop offset="1" stop-color="#f5e169"/></linearGradient><circle cx="50" cy="50" r="40" fill="url(#SVGID_1_)"/><path d="M31.866 58.591c2.57 7.556 9.709 13 18.134 13s15.564-5.444 18.134-13" fill="none" stroke="#4a3826" stroke-width="5" stroke-linecap="round" stroke-miterlimit="10"/><path d="M25.5 35.664c0 7.014 8 10.133 8 10.133s8-2.941 8-10.133c0-6.052-8-6.141-8-.533 0-5.608-8-5.164-8 .533z" fill="#4a3826"/><path d="M58.5 35.664c0 7.014 8 10.133 8 10.133s8-2.941 8-10.133c0-6.052-8-6.141-8-.533 0-5.608-8-5.164-8 .533z" fill="#4a3826"/><metadata xmlns:d="https://loading.io/stock/">
<d:name>love face</d:name>
<d:tags>love face,fall in love,like,favorite,enamour,enchanted,emotion,feeling,heart,emoji</d:tags>
<d:license>by</d:license>
<d:slug>udsyzi</d:slug>
</metadata></svg>