<?xml version="1.0"?>
<svg version="1.1" id="圖層_1" xmlns="http://www.w3.org/2000/svg" x="0" y="0" viewBox="0 0 100 100" xml:space="preserve"><path d="M34.205 85.84c-2.838 0-5.927-1.784-7.346-4.241L11.064 54.241c-1.419-2.457-1.419-6.024 0-8.482L26.859 18.4c1.418-2.457 4.508-4.241 7.346-4.241h31.59c2.838 0 5.927 1.783 7.346 4.241l15.796 27.358c1.419 2.458 1.419 6.025 0 8.482L73.141 81.599c-1.418 2.458-4.508 4.241-7.346 4.241h-31.59z" fill="#d1d1d1"/><path d="M86.247 47.311L70.451 19.953c-.853-1.479-2.95-2.688-4.657-2.688H34.205c-1.708 0-3.803 1.21-4.657 2.688L13.753 47.311c-.854 1.479-.854 3.899 0 5.377l15.795 27.358c.854 1.479 2.95 2.689 4.657 2.689h31.59c1.708 0 3.803-1.21 4.657-2.689l15.795-27.358c.854-1.477.854-3.898 0-5.377zm-28.772 2.843l12.338 12.338-7.004 7.004-12.337-12.339-12.339 12.339-7.003-7.004 12.338-12.338L31.13 37.816l7.003-7.003 12.338 12.338 12.645-12.646 7.003 7.003-12.644 12.646z" fill="#464646"/><metadata xmlns:d="https://loading.io/stock/"><d:name>stop</d:name><d:tags>halt,error,danger,warning,fail,remove,delete,terminate,stop,map</d:tags><d:license>free</d:license><d:slug>f50klf</d:slug></metadata></svg>