<?xml version="1.0"?>
<svg version="1.1" id="圖層_1" xmlns="http://www.w3.org/2000/svg" x="0" y="0" viewBox="0 0 100 100" xml:space="preserve"><path d="M45.5 8.2l-29.4 17c-2.8 1.6-4.5 4.6-4.5 7.8v34c0 3.2 1.7 6.2 4.5 7.8l29.4 17c2.8 1.6 6.2 1.6 9 0l29.4-17c2.8-1.6 4.5-4.6 4.5-7.8V33c0-3.2-1.7-6.2-4.5-7.8l-29.4-17c-2.8-1.6-6.2-1.6-9 0z" fill="#333"/><path id="XMLID_11_" d="M65.9 42.6c.7 0 1 .8.6 1.4L50.6 62c-.2.2-.4.3-.6.3-.2 0-.4-.1-.6-.3L33.5 43.9c-.5-.5-.1-1.4.6-1.4h11.1v-14c0-.6.5-1.1 1.1-1.1h7.5c.6 0 1.1.5 1.1 1.1v14h11z" fill="#fff"/><g><path d="M65.7 72.5H34.3c-.6 0-1-.5-1-1v-4.6c0-.6.5-1 1-1h31.4c.6 0 1 .5 1 1v4.6c.1.5-.4 1-1 1z" fill="#b3b3b3"/></g><metadata xmlns:d="https://loading.io/stock/"><d:name>download</d:name><d:tags>download,receive,cloud,fetch,sync,ftp,hexagon,form</d:tags><d:license>by</d:license><d:slug>1jm59x</d:slug></metadata></svg>