<?xml version="1.0"?>
<svg version="1.1" id="圖層_1" xmlns="http://www.w3.org/2000/svg" x="0" y="0" viewBox="0 0 100 100" xml:space="preserve"><circle cx="50" cy="50" r="40" fill="#333"/><path d="M68.828 29.538l-4.475 7.751-4.648.708-1.711-4.379 4.475-7.751-2.161-.108c-4.147-.216-7.93 1.762-9.882 5.143-1.843 3.192-1.872 7.336-.076 10.817.427.828.361 1.839-.182 2.653L37.555 63.774a6.596 6.596 0 0 0-.938 5.12c.392 1.704 1.425 3.119 2.907 3.986a6.337 6.337 0 0 0 5.005.598 6.33 6.33 0 0 0 3.843-3.241l10.587-20.808c.426-.862 1.268-1.425 2.199-1.469 3.912-.184 7.487-2.282 9.33-5.474 1.951-3.38 1.765-7.645-.487-11.129l-1.173-1.819z" fill="#fff"/><metadata xmlns:d="https://loading.io/stock/"><d:name>wrench</d:name><d:tags>wrench,spanner,hand tool,lever</d:tags><d:license>by</d:license><d:slug>cr56og</d:slug></metadata></svg>