<?xml version="1.0"?><svg xmlns="http://www.w3.org/2000/svg" viewBox="0 0 100 100"><linearGradient id="a" gradientUnits="userSpaceOnUse" x1="50" y1="22.624" x2="50" y2="79.344"><stop offset="0" stop-color="#f5e6c8"/><stop offset=".509" stop-color="#f8c788"/><stop offset="1" stop-color="#f5e6c8"/></linearGradient><circle cx="50" cy="50" r="40" fill="url(#a)" stroke="#f8b26a" stroke-width="3" stroke-miterlimit="10"/><ellipse cx="34.921" cy="39.083" rx="5.44" ry="10.583"/><ellipse cx="65.079" cy="39.083" rx="5.44" ry="10.583"/><path d="M58.905 76.742l-3.45-1.191a16.715 16.715 0 0 0-10.909 0l-3.45 1.191C35.64 77.905 30.5 73.745 30.5 68.167c0-5.578 5.14-9.738 10.595-8.576l3.45 1.191a16.715 16.715 0 0 0 10.909 0l3.45-1.191C64.36 58.429 69.5 62.589 69.5 68.167s-5.14 9.738-10.595 8.575z"/><path d="M85.14 18.954c4.952-1.686 8.268.379 9.47 3.91s-.303 7.237-5.117 8.876c-5.079 1.729-10.65-.339-13.157-1.503a1.504 1.504 0 0 1-.702-2.064c1.275-2.453 4.427-7.49 9.506-9.219z" fill="#a0c8d7"/><path d="M29.203 8.773c-3.858-3.915-7.945-3.536-10.736-.785s-3.122 6.94.628 10.746c3.957 4.015 10.163 4.695 13.067 4.782a1.58 1.58 0 0 0 1.631-1.608c-.044-2.904-.634-9.12-4.59-13.135z" fill="#a0c8d7"/><path d="M12.706 29.072c-3.822-.695-6.031 1.185-6.527 3.91s1.016 5.282 4.732 5.958c3.92.713 7.785-1.417 9.499-2.547a1.117 1.117 0 0 0 .29-1.593c-1.206-1.661-4.074-5.015-7.994-5.728z" fill="#a0c8d7"/><metadata xmlns:d="https://loading.io/stock/">
<d:name>nervous</d:name>
<d:tags>nervous,panic,flurried,rush,in a spin,flustered,mess</d:tags>
<d:license>by</d:license>
<d:slug>st01uo</d:slug>
</metadata></svg>