<?xml version="1.0"?><svg xmlns="http://www.w3.org/2000/svg" viewBox="0 0 100 100"><path d="M30.711 36.601a23.838 23.838 0 0 1 .895-1.203 25.214 25.214 0 0 1 .962-1.134c.187-.206.378-.407.572-.606.15-.155.3-.31.454-.46.203-.197.411-.388.621-.578.155-.14.307-.282.465-.418.223-.192.453-.375.683-.558.153-.122.304-.248.46-.366.259-.196.526-.381.792-.566.135-.094.266-.192.403-.283.407-.27.821-.528 1.244-.773l.023-.012c.416-.239.839-.465 1.269-.679.146-.073.297-.137.444-.206.294-.139.589-.278.889-.404.179-.076.362-.143.543-.214.274-.108.548-.216.827-.314.196-.069.394-.13.592-.193.27-.087.54-.172.813-.249.206-.058.413-.11.62-.162.271-.068.542-.134.816-.193a23.202 23.202 0 0 1 1.461-.265 23.66 23.66 0 0 1 1.487-.172c.218-.018.435-.036.653-.048.1-.006.199-.018.299-.022v-4.638l4.961-3.134L49 15.616v-4.604c-13.157.341-25.361 7.39-32.259 18.63l3.027 1.749 7.021-3.69.314 7.925 3.066 1.77c.054-.084.114-.164.168-.247.123-.185.248-.367.374-.548z" fill="#a0c8d7"/><path d="M29.034 60.596a26.854 26.854 0 0 1-.861-1.914 22.954 22.954 0 0 1-.756-2.222 25.248 25.248 0 0 1-.166-.598 22.286 22.286 0 0 1-.198-.85c-.043-.198-.089-.395-.127-.594a22.203 22.203 0 0 1-.148-.894c-.029-.189-.062-.378-.086-.568-.042-.328-.07-.657-.098-.987-.014-.163-.034-.325-.044-.488-.032-.491-.05-.986-.05-1.481s.018-.99.049-1.483c.01-.163.031-.325.044-.488.028-.33.056-.659.098-.987.024-.19.058-.379.086-.568.045-.299.091-.597.148-.894.038-.199.084-.396.127-.594.062-.284.126-.568.198-.85.052-.201.109-.399.166-.598.079-.276.161-.551.25-.824a25.833 25.833 0 0 1 .742-1.971c.115-.269.237-.536.363-.801.086-.181.171-.361.262-.54.046-.091.086-.186.134-.276l-4.019-2.319-.232-5.862-5.193 2.729-3.984-2.301C12.636 37.074 11 43.491 11 50s1.636 12.926 4.739 18.626l3.029-1.749.314-7.926 7.021 3.69 3.063-1.769c-.046-.09-.086-.184-.132-.276z" fill="#849b87"/><path d="M48.048 73.408a23.15 23.15 0 0 1-2.31-.31c-.213-.04-.426-.081-.638-.126a24.864 24.864 0 0 1-.817-.193c-.207-.052-.414-.104-.619-.162a22.404 22.404 0 0 1-.812-.249c-.198-.064-.397-.125-.593-.194-.278-.098-.552-.206-.827-.313-.181-.071-.364-.138-.543-.214-.3-.127-.594-.265-.889-.404-.148-.07-.298-.134-.444-.207-.43-.214-.853-.44-1.269-.679l-.023-.012a23.427 23.427 0 0 1-1.244-.773c-.137-.091-.268-.19-.403-.283-.267-.185-.533-.37-.792-.566-.156-.118-.307-.244-.46-.366-.23-.183-.46-.366-.683-.558-.158-.136-.311-.278-.466-.418-.209-.19-.417-.38-.62-.577-.154-.15-.304-.305-.454-.459a21.917 21.917 0 0 1-1.533-1.741 22.934 22.934 0 0 1-.895-1.203c-.126-.181-.252-.362-.373-.548-.055-.084-.115-.163-.169-.247l-4.021 2.321-5.193-2.729-.232 5.861-3.982 2.301C23.639 81.598 35.843 88.646 49 88.987v-3.502l-6.705-4.235L49 77.015v-3.536c-.1-.004-.199-.016-.299-.022-.218-.013-.436-.03-.653-.049z" fill="#abbd81"/><path d="M69.289 63.399a23.838 23.838 0 0 1-.895 1.203 25.214 25.214 0 0 1-.962 1.134c-.187.206-.378.407-.572.606-.15.155-.3.309-.454.46-.203.198-.412.388-.621.578-.155.14-.307.282-.466.418a22.75 22.75 0 0 1-.683.558c-.153.122-.304.248-.46.366-.259.196-.526.381-.792.566-.135.094-.266.192-.403.283-.407.27-.821.528-1.244.773l-.023.012c-.416.24-.839.465-1.269.679-.146.073-.297.137-.444.207-.294.139-.589.278-.889.404-.179.076-.362.143-.543.214-.274.108-.548.216-.827.313-.196.069-.395.13-.593.194-.27.087-.539.172-.813.249-.205.058-.412.11-.619.162a19.966 19.966 0 0 1-1.455.319 22.775 22.775 0 0 1-2.31.31c-.218.018-.435.036-.653.048-.1.006-.199.018-.299.022v4.638l-4.961 3.134L51 84.384v4.604c13.157-.341 25.361-7.39 32.259-18.63l-3.027-1.749-7.021 3.69-.314-7.925-3.066-1.77c-.054.084-.114.164-.168.247-.123.185-.248.367-.374.548z" fill="#f8b26a"/><path d="M73.896 37.358l-3.063 1.769c.047.091.088.185.134.277a26.854 26.854 0 0 1 .86 1.912 24.128 24.128 0 0 1 .507 1.398c.089.273.171.548.25.824.057.199.114.398.166.598.073.282.136.565.198.85.043.198.089.395.127.594.057.297.103.596.148.896.029.188.062.376.086.565.042.329.07.66.098.991.014.162.034.323.044.485.031.493.049.988.049 1.483s-.018.99-.049 1.483c-.01.162-.03.323-.044.485-.028.331-.056.662-.098.991-.024.189-.057.377-.086.565a22.6 22.6 0 0 1-.148.896c-.038.199-.084.396-.127.594-.062.284-.126.568-.198.85-.052.201-.109.399-.166.598-.079.276-.161.551-.25.824a24.128 24.128 0 0 1-.507 1.398 23.961 23.961 0 0 1-.598 1.372c-.086.181-.171.361-.262.54-.046.091-.086.186-.134.276l4.019 2.319.232 5.862 5.193-2.729 3.984 2.301C87.364 62.926 89 56.509 89 50s-1.636-12.926-4.739-18.626l-3.029 1.749-.314 7.926-7.022-3.691z" fill="#f47e60"/><path d="M51.952 26.592a23.15 23.15 0 0 1 3.763.63c.207.052.415.104.62.162.273.077.543.163.813.25.198.064.396.125.592.193.278.098.553.206.827.314.181.071.364.138.543.214.3.127.594.265.889.404.148.07.298.134.444.206.43.214.853.44 1.269.679l.023.012c.423.244.837.503 1.244.773.137.091.268.19.403.283.267.185.533.37.792.566.156.118.307.244.46.366.23.183.46.366.684.558.158.136.311.277.465.417.21.19.418.38.621.578.154.15.304.305.455.46.193.199.385.4.571.606a25.593 25.593 0 0 1 1.368 1.659 25.356 25.356 0 0 1 .862 1.226c.055.084.115.163.169.247l4.021-2.321 5.193 2.729.232-5.861 3.982-2.301C76.361 18.402 64.157 11.354 51 11.013v3.502l6.705 4.235L51 22.985v3.536c.1.004.199.016.299.022.218.013.436.031.653.049z" fill="#e15b64"/><metadata xmlns:d="https://loading.io/stock/">
<d:name>step</d:name>
<d:tags>step,flow,process,progress,direction,followup,infographics,wheel,ring,circle</d:tags>
<d:license>by</d:license>
<d:slug>fr42oe</d:slug>
</metadata></svg>