<?xml version="1.0"?><svg version="1.1" id="Layer_1" xmlns="http://www.w3.org/2000/svg" x="0" y="0" viewBox="0 0 100 100" xml:space="preserve"><path d="M70.017 58c-13.344 9.178-26.689 9.178-40.033 0-1.755-1.207-2.77-3.233-2.77-5.363v-11.26c0-1.754 1.842-2.926 3.414-2.146 12.915 6.408 25.83 6.408 38.745 0 1.572-.78 3.414.392 3.414 2.146v11.26c-.001 2.131-1.015 4.156-2.77 5.363z" stroke-width="3.5" stroke-miterlimit="10" fill="#666766" stroke="#333"/><path d="M69.373 39.231a49.825 49.825 0 0 1-5.873 2.454v7.858c0 4.771-1.014 9.307-2.77 12.011-.39.6-.779 1.179-1.169 1.744 3.485-1.145 6.97-2.9 10.456-5.297 1.755-1.207 2.77-3.233 2.77-5.363v-11.26c-.001-1.755-1.843-2.926-3.414-2.147z" opacity=".5" stroke-linejoin="round" stroke="#000" stroke-width="3.5" stroke-miterlimit="10"/><path fill="none" stroke="#333" stroke-linecap="round" stroke-width="3.5" stroke-miterlimit="10" d="M32.333 43.636v9.833"/><path d="M85.227 56.694v-4.798a3.988 3.988 0 0 0 2.25-3.581c0-1.578-.922-2.93-2.25-3.581v-8.14h-3.5v8.14a3.987 3.987 0 0 0-2.25 3.581c0 1.578.922 2.93 2.25 3.581v4.798a3.987 3.987 0 0 0-2.25 3.581v18.829h8V60.275c0-1.579-.923-2.93-2.25-3.581z" fill="#333"/><path d="M87.477 48.315c0-1.578-.922-2.93-2.25-3.581v-8.14h-1.75v42.509h4V60.275c0-1.578-.922-2.93-2.25-3.581v-4.798a3.99 3.99 0 0 0 2.25-3.581z" opacity=".5"/><path d="M88.902 37.483L50.605 51.196a1.5 1.5 0 0 1-1.21 0L11.098 37.483c-1.464-.526-1.464-2.221 0-2.747l38.297-13.713a1.5 1.5 0 0 1 1.21 0l38.297 13.713c1.464.527 1.464 2.221 0 2.747z" fill="#333" stroke="#333" stroke-width="3.5" stroke-miterlimit="10"/><path d="M88.902 34.737l-19.157-6.86c0 .052.005.103.005.155 0 7.433-3.55 14.27-9.492 19.708l28.644-10.256c1.464-.527 1.464-2.221 0-2.747z" opacity=".5" stroke="#000" stroke-width="3.5" stroke-miterlimit="10"/><ellipse cx="50" cy="33.459" rx="4.713" ry="3.485" fill="#666766"/><path d="M50 29.974c-.147 0-.285.022-.429.032 1.2.163 2.142 1.637 2.142 3.453 0 1.816-.943 3.291-2.142 3.453.143.01.282.032.429.032 2.603 0 4.713-1.56 4.713-3.485 0-1.925-2.11-3.485-4.713-3.485z" opacity=".2"/><metadata xmlns:d="https://loading.io/stock/">
<d:name>education</d:name>
<d:tags>education,study,learn,research,college,graduate,phd,doctor,teach,instructor,lecturer</d:tags>
<d:license>by</d:license>
<d:slug>fcmayv</d:slug>
</metadata></svg>