<?xml version="1.0"?>
<svg version="1.1" id="圖層_1" xmlns="http://www.w3.org/2000/svg" x="0" y="0" viewBox="0 0 100 100" xml:space="preserve"><path d="M74.896 91.993L51.362 71.848a2.096 2.096 0 0 0-2.725 0L25.104 91.993c-1.359 1.164-3.457.198-3.457-1.592V9.595c0-1.157.938-2.095 2.095-2.095h52.516c1.157 0 2.095.938 2.095 2.095v80.806c0 1.789-2.098 2.755-3.457 1.592z" fill="#c33737"/><path d="M51.659 26.632l3.581 7.256c.27.546.791.925 1.393 1.012l8.007 1.164c1.518.221 2.124 2.086 1.025 3.156l-5.794 5.648a1.85 1.85 0 0 0-.532 1.638l1.368 7.975c.259 1.512-1.327 2.664-2.685 1.951l-7.162-3.765a1.852 1.852 0 0 0-1.722 0l-7.162 3.765c-1.357.714-2.944-.439-2.685-1.951l1.368-7.975a1.85 1.85 0 0 0-.532-1.638l-5.794-5.648c-1.098-1.07-.492-2.936 1.025-3.156l8.007-1.164a1.85 1.85 0 0 0 1.393-1.012l3.581-7.256c.68-1.375 2.642-1.375 3.32 0z" fill="#f5e6c8"/><metadata xmlns:d="https://loading.io/stock/"><d:name>tag</d:name><d:tags>star,favorite,memo,bookmark,label,hint,mark,identify,stamp,tag,books</d:tags><d:license>by</d:license><d:slug>n5a4g9</d:slug></metadata></svg>