<?xml version="1.0"?>
<svg version="1.1" id="Layer_1" xmlns="http://www.w3.org/2000/svg" x="0" y="0" viewBox="0 0 100 100" xml:space="preserve"><path d="M50.5 7.5c-12.9 0-23.3 18.7-23.7 42h8.6c.3-23.3 6.9-42 15.1-42z" fill="#f7b26a"/><path d="M7.5 49.5c0 12.9 18.7 23.3 42 23.7v-8.6c-23.3-.3-42-6.9-42-15.1z" fill="#f7b26a"/><path d="M40.9 50v-.5H7.5c0 8.2 18.7 14.9 42 15.1v-5.4h.5c-4.9-.4-8.8-4.3-9.1-9.2z" fill="#f47e5f"/><path d="M64.5 50.5c-.2 23.3-6.9 42-15.1 42 12.9 0 23.3-18.7 23.7-42h-8.6z" fill="#f7b26a"/><path d="M59.1 50.5V50c-.3 4.9-4.2 8.8-9.1 9.1h-.5v33.4c8.2 0 14.9-18.7 15.1-42h-5.5z" fill="#f47e5f"/><path d="M92.5 50.5c0-12.9-18.7-23.3-42-23.7v8.6c23.3.3 42 6.9 42 15.1z" fill="#f7b26a"/><path d="M35.5 49.5h5.4v.5c.3-4.9 4.2-8.8 9.1-9.1h.5V7.5c-8.2 0-14.8 18.7-15 42z" fill="#f47e5f"/><path d="M50.5 35.5v5.4H50c4.9.3 8.8 4.2 9.1 9.1v.5h33.4c0-8.2-18.7-14.8-42-15z" fill="#f47e5f"/><metadata xmlns:d="https://loading.io/stock/"><d:name>shuriken</d:name><d:tags>weapon,kunai,ninja,samurai,soilder,attack,shuriken,spinner</d:tags><d:license>pro</d:license><d:slug>9aqt03</d:slug></metadata></svg>