<?xml version="1.0"?>
<svg version="1.1" id="圖層_1" xmlns="http://www.w3.org/2000/svg" x="0" y="0" viewBox="0 0 100 100" xml:space="preserve"><path d="M65.2 69.6c-21.7 0-39.3-17.2-39.3-38.3 0-8 2.5-15.4 6.8-21.6.6-.9-.3-2-1.3-1.6-13.2 6.4-22.7 19.4-24 34.8-2.3 26.2 20.1 48.6 46.3 46.2C69.2 87.7 82.4 78 88.6 64.5c.4-1-.6-1.9-1.5-1.3-6.3 4-13.8 6.4-21.9 6.4z" fill-rule="evenodd" clip-rule="evenodd" fill="#f8b26a"/><path d="M79.3 25.2l2.6 5.2c.1.2.3.3.5.4l5.8.8c.5.1.8.7.4 1.1l-4.2 4.1c-.2.2-.2.4-.2.6l1 5.8c.1.5-.5 1-1 .7L79 41.2c-.2-.1-.4-.1-.6 0l-5.2 2.7c-.5.3-1.1-.2-1-.7l1-5.8c0-.2 0-.4-.2-.6l-4.2-4.1c-.4-.4-.2-1 .4-1.1l5.8-.8c.2 0 .4-.2.5-.4l2.6-5.2c.2-.5.9-.5 1.2 0z" fill-rule="evenodd" clip-rule="evenodd" fill="#f5e6c8"/><path d="M50.5 12.8l2.1 4.3c.1.2.2.3.4.3l4.7.7c.4.1.6.6.3.9l-3.4 3.3c-.1.1-.2.3-.2.5l.8 4.7c.1.4-.4.8-.8.6l-4.2-2.2c-.2-.1-.3-.1-.5 0l-4.2 2.2c-.4.2-.9-.1-.8-.6l.8-4.7c0-.2 0-.4-.2-.5L42 19c-.3-.3-.1-.9.3-.9l4.7-.7c.2 0 .3-.1.4-.3l2.1-4.3c.2-.4.8-.4 1 0z" fill-rule="evenodd" clip-rule="evenodd" fill="#f5e6c8"/><metadata xmlns:d="https://loading.io/stock/"><d:name>moon</d:name><d:tags>night,star,lunar,sky,dark,midnight,moon,weather</d:tags><d:license>pro</d:license><d:slug>9vp5su</d:slug></metadata></svg>