<?xml version="1.0"?>
<svg version="1.1" id="圖層_1" xmlns="http://www.w3.org/2000/svg" x="0" y="0" viewBox="0 0 100 100" xml:space="preserve"><path d="M77.47 90H22.53a3.203 3.203 0 0 1-3.203-3.203V41.759h61.345v45.039A3.201 3.201 0 0 1 77.47 90z" fill="#66503a"/><path d="M77.859 21.733H22.141a4.041 4.041 0 0 0-3.79 2.639l-8.017 28.417c-.918 2.639.919 5.442 3.565 5.442h72.2c2.647 0 4.484-2.803 3.565-5.442l-8.017-28.417a4.037 4.037 0 0 0-3.788-2.639z" fill="#f8b26a"/><path fill="#333" d="M52.057 67.995h17.892V90H52.057z"/><path d="M78.034 21.946H21.966a2.639 2.639 0 0 1-2.639-2.639v-.773a2.639 2.639 0 0 1 2.639-2.639h56.068a2.639 2.639 0 0 1 2.639 2.639v.773a2.64 2.64 0 0 1-2.639 2.639z" fill="#66503a"/><path d="M40.371 38.581h-11.59a2.05 2.05 0 0 1-2.049-2.128l.851-22.32c0-2.383 1.749-4.132 3.907-4.132h6.17a3.907 3.907 0 0 1 3.907 3.907l.852 22.546a2.049 2.049 0 0 1-2.048 2.127z" fill="#ec6551"/><metadata xmlns:d="https://loading.io/stock/"><d:name>house</d:name><d:tags>house,home,building,farm,stable,pasture,cottage,band,hay,granary,ancient,funky</d:tags><d:license>by</d:license><d:slug>z4qxps</d:slug></metadata></svg>