<?xml version="1.0"?>
<svg version="1.1" id="圖層_1" xmlns="http://www.w3.org/2000/svg" x="0" y="0" viewBox="0 0 100 100" xml:space="preserve"><path fill="#333" d="M36.2 10H25.7v65.4h-9.2L31 90l14.5-14.6h-9.3z"/><g><path d="M73.4 34.6c0 .9 0 1.5.1 2 .1.4.3.8.5 1.1.2.3.6.5 1.1.7.5.2 1 .3 1.8.4.7.1 1.6.1 2.8.2v2H60.3v-2c1.7-.1 2.8-.2 3.6-.3.7-.1 1.3-.3 1.6-.6.4-.3.6-.6.8-1.1.2-.5.3-1.2.3-2.3V18.3c0-.6-.1-1.1-.3-1.3-.2-.3-.5-.4-1-.4-.4 0-.9.2-1.6.5-.7.3-1.8 1-3.4 2.1L59 16.9l11.7-7h2.9c-.1 1.4-.1 3.4-.1 6v18.7z" fill="#f47e60"/></g><g><path d="M63.3 86.4v-1.6c1 0 1.8-.1 2.5-.3.9-.2 1.7-.5 2.4-.9.8-.4 1.4-.9 2-1.5.7-.7 1.3-1.5 1.8-2.4.5-.9.8-1.9 1.1-2.9.3-1.1.5-2.2.6-3.3l-.2-.1c-1.1.8-2.3 1.4-3.4 1.7-1.1.4-2.4.5-4 .5-1.7 0-3.2-.4-4.4-1.1-1.2-.7-2.1-1.8-2.7-3.1-.6-1.3-.9-2.9-.9-4.7 0-2 .5-3.7 1.4-5.3.9-1.5 2.3-2.7 4-3.6 1.7-.8 3.8-1.2 6.1-1.2 2.4 0 4.4.5 6 1.5 1.6 1 2.9 2.4 3.7 4.3.8 1.9 1.2 4.1 1.2 6.8 0 3.7-.6 6.9-1.9 9.6-1.3 2.7-3.1 4.7-5.5 6.2s-5.3 2.4-8.7 2.6l-1.1-1.2zm5.5-13.8c.5 0 1.1-.1 1.5-.2.5-.1.9-.3 1.3-.5s.8-.5 1.2-.8c.4-.3.6-.6.7-.7.1-.2.2-.5.3-.8.1-.4.1-.9.1-1.5 0-2.9-.4-5.1-1.2-6.7-.8-1.5-1.9-2.3-3.4-2.3-.9 0-1.6.2-2.2.5-.6.3-1.1.8-1.5 1.4-.4.6-.6 1.4-.8 2.2-.2.9-.2 1.8-.2 2.9.1 4.4 1.4 6.5 4.2 6.5z" fill="#f8b26a"/></g><metadata xmlns:d="https://loading.io/stock/"><d:name>sort</d:name><d:tags>ascend,numeric,rank,order,increase,sort,web application</d:tags><d:license>by</d:license><d:slug>8wxl4g</d:slug></metadata></svg>