<?xml version="1.0"?><svg version="1.1" id="圖層_1" xmlns="http://www.w3.org/2000/svg" x="0" y="0" viewBox="0 0 100 100" xml:space="preserve"><path d="M78.4 89H21.6c-4.6 0-8.4-3.7-8.4-8.4V19.4c0-4.6 3.7-8.4 8.4-8.4h56.8c4.6 0 8.4 3.7 8.4 8.4v61.3c0 4.6-3.8 8.3-8.4 8.3z" fill="#f8b26a" stroke-linecap="round" stroke="#333" stroke-width="3.5" stroke-miterlimit="10"/><path fill="#e0e0e0" stroke="#333" stroke-width="3.5" stroke-linecap="round" stroke-miterlimit="10" d="M29.3 11h41.3v29.1H29.3z"/><path fill="#333" stroke-linecap="round" stroke="#333" stroke-width="3.5" stroke-miterlimit="10" d="M53.3 19.5h7.4v12.2h-7.4z"/><circle cx="50" cy="63.9" r="12.4" fill="#e0e0e0" stroke="#333" stroke-width="3.5" stroke-linecap="round" stroke-miterlimit="10"/><path d="M78.4 11H67.1L47.3 89h31.1c4.6 0 8.4-3.7 8.4-8.4V19.4c0-4.7-3.8-8.4-8.4-8.4z" opacity=".2" stroke="#000" stroke-width="3.5" stroke-linecap="round" stroke-miterlimit="10"/><path fill="none" stroke-linecap="round" stroke="#fff" stroke-width="3.5" stroke-miterlimit="10" d="M21.1 36.7v1.1"/><path fill="none" stroke-linecap="round" stroke="#fff" stroke-width="3.5" stroke-miterlimit="10" d="M21.1 19.5v11.6"/><metadata xmlns:d="https://loading.io/stock/">
<d:name>save</d:name>
<d:tags>save,floppy disk,dump,backup,store,storage,write</d:tags>
<d:license>by</d:license>
<d:slug>kytqtb</d:slug>
</metadata></svg>