<?xml version="1.0"?><svg version="1.1" id="圖層_1" xmlns="http://www.w3.org/2000/svg" x="0" y="0" viewBox="0 0 100 100" xml:space="preserve"><circle cx="50" cy="50" r="33.625" stroke-miterlimit="10" stroke="#e0e0e0" fill="none" stroke-width="3.5"/><circle cx="50" cy="50" r="33.625" stroke-width="12" fill="none" stroke="#e15b64" stroke-miterlimit="10"/><path fill="#333" stroke="#333" stroke-miterlimit="10" d="M36.82 38.841l-6.299 2.4.629 1.83 3.661-1.41V57.44h-5.04v1.8H41.11v-1.8h-4.29z"/><path d="M50.439 38.961c-5.819 0-5.579 5.58-5.579 10.29 0 3.449-.54 10.259 5.579 10.259 6.12 0 5.58-7.049 5.58-10.259.001-2.25.781-10.29-5.58-10.29zm0 18.659c-2.039 0-3.479-.51-3.479-8.369 0-3.99-.3-8.4 3.479-8.4 2.13 0 3.48.66 3.48 8.4.001 7.439-1.169 8.369-3.48 8.369z" fill="#333" stroke="#333" stroke-miterlimit="10"/><path d="M65.439 38.961c-5.82 0-5.58 5.58-5.58 10.29 0 3.449-.54 10.259 5.58 10.259s5.58-7.049 5.58-10.259c.001-2.25.78-10.29-5.58-10.29zm0 18.659c-2.04 0-3.479-.51-3.479-8.369 0-3.99-.301-8.4 3.479-8.4 2.13 0 3.479.66 3.479 8.4.001 7.439-1.169 8.369-3.479 8.369z" fill="#333" stroke="#333" stroke-miterlimit="10"/><metadata xmlns:d="https://loading.io/stock/">
<d:name>100%</d:name>
<d:tags>100,percentage,progress,loading,status,bar,curved,circular,downloading,process</d:tags>
<d:license>by</d:license>
<d:slug>fibgom</d:slug>
</metadata></svg>