<?xml version="1.0"?><svg xmlns="http://www.w3.org/2000/svg" viewBox="0 0 100 100"><path d="M41.004 63.796c.29-1.487.356-2.988.212-4.458a1.448 1.448 0 0 1 .945-1.512l.488-.175a1.444 1.444 0 0 0 .871-1.848l-.861-2.397a1.444 1.444 0 0 0-1.848-.871l-.488.175a1.449 1.449 0 0 1-1.691-.564 15.42 15.42 0 0 0-3.002-3.303 1.445 1.445 0 0 1-.399-1.735l.221-.469a1.445 1.445 0 0 0-.691-1.923l-2.304-1.086a1.445 1.445 0 0 0-1.923.691l-.221.469c-.283.601-.94.924-1.592.797a15.425 15.425 0 0 0-4.458-.212 1.448 1.448 0 0 1-1.512-.945l-.175-.488a1.444 1.444 0 0 0-1.848-.871l-2.397.861a1.444 1.444 0 0 0-.871 1.848l.175.488a1.449 1.449 0 0 1-.564 1.691 15.42 15.42 0 0 0-3.303 3.002 1.445 1.445 0 0 1-1.735.399l-.469-.221a1.445 1.445 0 0 0-1.923.691l-1.086 2.304a1.445 1.445 0 0 0 .691 1.923l.469.221c.601.283.924.94.797 1.592a15.425 15.425 0 0 0-.212 4.458 1.448 1.448 0 0 1-.945 1.512l-.488.175a1.444 1.444 0 0 0-.871 1.848l.861 2.397a1.444 1.444 0 0 0 1.848.871l.488-.175a1.449 1.449 0 0 1 1.691.564 15.42 15.42 0 0 0 3.002 3.303c.514.422.683 1.134.399 1.735l-.221.469a1.445 1.445 0 0 0 .691 1.923l2.304 1.086c.722.34 1.583.031 1.923-.691l.221-.469c.283-.601.94-.924 1.592-.797 1.487.29 2.988.356 4.458.212a1.448 1.448 0 0 1 1.512.945l.175.488a1.444 1.444 0 0 0 1.848.871l2.397-.861a1.444 1.444 0 0 0 .871-1.848l-.175-.488a1.449 1.449 0 0 1 .564-1.691 15.42 15.42 0 0 0 3.303-3.002 1.445 1.445 0 0 1 1.735-.399l.469.221c.722.34 1.583.031 1.923-.691l1.086-2.304a1.445 1.445 0 0 0-.691-1.923l-.469-.221a1.446 1.446 0 0 1-.797-1.592zm-9.05 6.24a11.154 11.154 0 0 1-5.116 1.839 11.035 11.035 0 0 1-5.809-1.006 11.046 11.046 0 0 1-4.474-3.84 11.154 11.154 0 0 1-1.839-5.116 11.035 11.035 0 0 1 1.006-5.809 11.046 11.046 0 0 1 3.84-4.474 11.154 11.154 0 0 1 5.116-1.839 11.035 11.035 0 0 1 5.809 1.006 11.046 11.046 0 0 1 4.474 3.84 11.154 11.154 0 0 1 1.839 5.116 11.035 11.035 0 0 1-1.006 5.809c-.4.848-.894 1.622-1.463 2.315a11.02 11.02 0 0 1-2.377 2.159z" fill="#f8b26a"/><path d="M87.852 57.521a19.434 19.434 0 0 0-2.153-5.196 1.825 1.825 0 0 1 .265-2.231l.462-.462a1.82 1.82 0 0 0 0-2.575l-2.269-2.269a1.82 1.82 0 0 0-2.575 0l-.462.462a1.824 1.824 0 0 1-2.231.265 19.466 19.466 0 0 0-5.196-2.153 1.823 1.823 0 0 1-1.387-1.764v-.653a1.82 1.82 0 0 0-1.821-1.821h-3.209a1.82 1.82 0 0 0-1.821 1.821v.653c0 .838-.575 1.558-1.387 1.764a19.434 19.434 0 0 0-5.196 2.153 1.825 1.825 0 0 1-2.231-.265l-.462-.462a1.82 1.82 0 0 0-2.575 0l-2.269 2.269a1.82 1.82 0 0 0 0 2.575l.462.462c.594.594.695 1.51.265 2.231a19.466 19.466 0 0 0-2.153 5.196 1.823 1.823 0 0 1-1.764 1.387h-.653a1.82 1.82 0 0 0-1.821 1.821v3.209a1.82 1.82 0 0 0 1.821 1.821h.653c.838 0 1.558.575 1.764 1.387a19.434 19.434 0 0 0 2.153 5.196c.43.721.328 1.637-.265 2.231l-.462.462a1.82 1.82 0 0 0 0 2.575l2.269 2.269a1.82 1.82 0 0 0 2.575 0l.462-.462a1.824 1.824 0 0 1 2.231-.265 19.466 19.466 0 0 0 5.196 2.153 1.823 1.823 0 0 1 1.387 1.764v.653a1.82 1.82 0 0 0 1.821 1.821h3.209a1.82 1.82 0 0 0 1.821-1.821v-.653c0-.838.575-1.558 1.387-1.764a19.434 19.434 0 0 0 5.196-2.153 1.825 1.825 0 0 1 2.231.265l.462.462a1.82 1.82 0 0 0 2.575 0l2.269-2.269a1.82 1.82 0 0 0 0-2.575l-.462-.462a1.825 1.825 0 0 1-.265-2.231 19.466 19.466 0 0 0 2.153-5.196 1.823 1.823 0 0 1 1.764-1.387h.653a1.82 1.82 0 0 0 1.821-1.821v-3.209a1.82 1.82 0 0 0-1.821-1.821h-.653a1.823 1.823 0 0 1-1.764-1.387zm-6.964 11.975a14.047 14.047 0 0 1-4.844 4.844 13.91 13.91 0 0 1-7.162 1.974 13.91 13.91 0 0 1-7.162-1.974 14.047 14.047 0 0 1-4.844-4.844 13.91 13.91 0 0 1-1.974-7.162 13.91 13.91 0 0 1 1.974-7.162 14.047 14.047 0 0 1 4.844-4.844 13.91 13.91 0 0 1 7.162-1.974 13.91 13.91 0 0 1 7.162 1.974 14.047 14.047 0 0 1 4.844 4.844 13.91 13.91 0 0 1 1.974 7.162 13.91 13.91 0 0 1-1.974 7.162z" fill="#e15b64"/><path d="M56.765 25.764a11.968 11.968 0 0 0-1.323-3.194 1.121 1.121 0 0 1 .163-1.371l.284-.284a1.118 1.118 0 0 0 0-1.582l-1.395-1.395a1.118 1.118 0 0 0-1.582 0l-.284.284a1.121 1.121 0 0 1-1.371.163 11.968 11.968 0 0 0-3.194-1.323 1.121 1.121 0 0 1-.853-1.084v-.401c0-.618-.501-1.119-1.119-1.119h-1.972c-.618 0-1.119.501-1.119 1.119v.401c0 .515-.353.958-.853 1.084a11.968 11.968 0 0 0-3.194 1.323 1.121 1.121 0 0 1-1.371-.163l-.284-.284a1.118 1.118 0 0 0-1.582 0l-1.395 1.395a1.118 1.118 0 0 0 0 1.582l.284.284c.365.365.427.928.163 1.371a11.968 11.968 0 0 0-1.323 3.194 1.121 1.121 0 0 1-1.084.853h-.401c-.618 0-1.119.501-1.119 1.119v1.972c0 .618.501 1.119 1.119 1.119h.401c.515 0 .958.353 1.084.853a11.968 11.968 0 0 0 1.323 3.194 1.121 1.121 0 0 1-.163 1.371l-.284.284a1.118 1.118 0 0 0 0 1.582l1.395 1.395a1.118 1.118 0 0 0 1.582 0l.284-.284a1.121 1.121 0 0 1 1.371-.163 11.968 11.968 0 0 0 3.194 1.323c.5.126.853.569.853 1.084v.401c0 .618.501 1.119 1.119 1.119h1.972c.618 0 1.119-.501 1.119-1.119v-.401c0-.515.353-.958.853-1.084a11.968 11.968 0 0 0 3.194-1.323 1.121 1.121 0 0 1 1.371.163l.284.284a1.118 1.118 0 0 0 1.582 0l1.395-1.395a1.118 1.118 0 0 0 0-1.582l-.284-.284a1.121 1.121 0 0 1-.163-1.371 11.968 11.968 0 0 0 1.323-3.194 1.121 1.121 0 0 1 1.084-.853h.401c.618 0 1.119-.501 1.119-1.119v-1.972c0-.618-.501-1.119-1.119-1.119h-.401a1.12 1.12 0 0 1-1.084-.853zm-4.28 7.36a8.622 8.622 0 0 1-5.274 3.93 8.596 8.596 0 0 1-10.437-10.437A8.622 8.622 0 0 1 43 20.39a8.596 8.596 0 0 1 10.437 10.437 8.533 8.533 0 0 1-.952 2.297z" fill="#abbd81"/><metadata xmlns:d="https://loading.io/stock/">
<d:name>gear</d:name>
<d:tags>gear,config,setting,manage,operation,mechanic,machine,workshop</d:tags>
<d:license>by</d:license>
<d:slug>9nxgjl</d:slug>
</metadata></svg>