<?xml version="1.0"?><svg xmlns="http://www.w3.org/2000/svg" viewBox="0 0 100 100"><g><path d="M15.194 70.305V32.014a6.042 6.042 0 0 1 6.042-6.042h57.528a6.042 6.042 0 0 1 6.042 6.042v38.291" fill="#666"/><path d="M19 64.014V33.368a3.382 3.382 0 0 1 3.382-3.382h55.236A3.382 3.382 0 0 1 81 33.368v30.647H19z" fill="#fff"/><path d="M58.627 67.695c-.645 1.248-1.933 2.11-3.435 2.11H44.808c-1.502 0-2.79-.862-3.435-2.11H8.333c0 4.602 3.731 6.333 8.333 6.333h66.667c4.602 0 8.333-1.731 8.333-6.333H58.627z" fill="#e0e0e0"/></g><g><path d="M49 59.575l-6.397.013a2.588 2.588 0 0 1-2.593-2.582l-.008-3.747a2.588 2.588 0 0 1 2.582-2.593l6.397-.013a2.588 2.588 0 0 1 2.593 2.582l.008 3.747A2.588 2.588 0 0 1 49 59.575z" fill="none" stroke="#c33736" stroke-width="3" stroke-miterlimit="10"/><path d="M59.327 55.902l-21.983.542a.968.968 0 0 0-.395.095l-3.809 1.836a.965.965 0 0 1-1.326-.543l-1.757-4.896a.964.964 0 0 1 .678-1.262l4.108-1.005a.97.97 0 0 0 .365-.177l17.311-13.56a.964.964 0 0 1 1.501.433l6.19 17.246a.964.964 0 0 1-.883 1.291z" fill="#e15c64"/><path fill="none" stroke="#76a4bd" stroke-width="3" stroke-miterlimit="10" d="M57.762 41.702l6.011-7.29"/><path fill="none" stroke="#76a4bd" stroke-width="3" stroke-miterlimit="10" d="M60.267 45.213l8.851-3.307"/><path fill="none" stroke="#76a4bd" stroke-width="3" stroke-miterlimit="10" d="M60.681 49.507L70 51.068"/></g><metadata xmlns:d="https://loading.io/stock/">
<d:name>online marketing</d:name>
<d:tags>online marketing,promotion,sales,advertisement,dm,commercial,cm,bullhorn,broadcast</d:tags>
<d:license>by</d:license>
<d:slug>6hyjzo</d:slug>
</metadata></svg>