<?xml version="1.0"?>
<svg version="1.1" id="圖層_1" xmlns="http://www.w3.org/2000/svg" x="0" y="0" viewBox="0 0 100 100" xml:space="preserve"><g><circle cx="50" cy="50" r="25" fill="#f5e6c8"/></g><g><path d="M49.5 18.4c-1.1 0-2-.9-2-2V9c0-1.1.9-2 2-2s2 .9 2 2v7.4c0 1.1-.9 2-2 2z" fill="#f8b26a"/></g><g><path d="M32.8 23.1c-.7 0-1.4-.4-1.7-1l-3.7-6.4c-.6-1-.2-2.2.7-2.7 1-.6 2.2-.2 2.7.7l3.7 6.4c.6 1 .2 2.2-.7 2.7-.4.2-.7.3-1 .3z" fill="#f8b26a"/></g><g><path d="M20.6 35.6c-.3 0-.7-.1-1-.3l-6.4-3.7c-1-.6-1.3-1.8-.7-2.7.6-1 1.8-1.3 2.7-.7l6.4 3.7c1 .6 1.3 1.8.7 2.7-.3.7-1 1-1.7 1z" fill="#f8b26a"/></g><g><path d="M16.4 52.5H9c-1.1 0-2-.9-2-2s.9-2 2-2h7.4c1.1 0 2 .9 2 2s-.9 2-2 2z" fill="#f8b26a"/></g><g><path d="M14.7 72.9c-.7 0-1.4-.4-1.7-1-.6-1-.2-2.2.7-2.7l6.4-3.7c1-.6 2.2-.2 2.7.7.6 1 .2 2.2-.7 2.7l-6.4 3.7c-.3.2-.6.3-1 .3z" fill="#f8b26a"/></g><g><path d="M29.9 87.8c-.3 0-.7-.1-1-.3-1-.6-1.3-1.8-.7-2.7l3.7-6.4c.6-1 1.8-1.3 2.7-.7 1 .6 1.3 1.8.7 2.7l-3.7 6.4c-.3.6-1 1-1.7 1z" fill="#f8b26a"/></g><g><path d="M50.5 93c-1.1 0-2-.9-2-2v-7.4c0-1.1.9-2 2-2s2 .9 2 2V91c0 1.1-.9 2-2 2z" fill="#f8b26a"/></g><g><path d="M70.9 87.3c-.7 0-1.4-.4-1.7-1l-3.7-6.4c-.6-1-.2-2.2.7-2.7 1-.6 2.2-.2 2.7.7l3.7 6.4c.6 1 .2 2.2-.7 2.7-.3.2-.6.3-1 .3z" fill="#f8b26a"/></g><g><path d="M85.8 72.1c-.3 0-.7-.1-1-.3l-6.4-3.7c-1-.6-1.3-1.8-.7-2.7.6-1 1.8-1.3 2.7-.7l6.4 3.7c1 .6 1.3 1.8.7 2.7-.4.6-1.1 1-1.7 1z" fill="#f8b26a"/></g><g><path d="M91 51.5h-7.4c-1.1 0-2-.9-2-2s.9-2 2-2H91c1.1 0 2 .9 2 2s-.9 2-2 2z" fill="#f8b26a"/></g><g><path d="M78.9 34.8c-.7 0-1.4-.4-1.7-1-.6-1-.2-2.2.7-2.7l6.4-3.7c1-.6 2.2-.2 2.7.7.6 1 .2 2.2-.7 2.7l-6.4 3.7c-.3.2-.7.3-1 .3z" fill="#f8b26a"/></g><g><path d="M66.4 22.6c-.3 0-.7-.1-1-.3-1-.6-1.3-1.8-.7-2.7l3.7-6.4c.6-1 1.8-1.3 2.7-.7 1 .6 1.3 1.8.7 2.7l-3.7 6.4c-.4.7-1 1-1.7 1z" fill="#f8b26a"/></g><metadata xmlns:d="https://loading.io/stock/"><d:name>sun</d:name><d:tags>star,solar system,sun,astrology</d:tags><d:license>pro</d:license><d:slug>7g989x</d:slug></metadata></svg>