<?xml version="1.0"?>
<svg version="1.1" id="圖層_1" xmlns="http://www.w3.org/2000/svg" x="0" y="0" viewBox="0 0 100 100" xml:space="preserve"><path d="M45.5 8.2l-29.4 17c-2.8 1.6-4.5 4.6-4.5 7.8v34c0 3.2 1.7 6.2 4.5 7.8l29.4 17c2.8 1.6 6.2 1.6 9 0l29.4-17c2.8-1.6 4.5-4.6 4.5-7.8V33c0-3.2-1.7-6.2-4.5-7.8l-29.4-17c-2.8-1.6-6.2-1.6-9 0z" fill="#333"/><g><path fill="#abbd81" d="M43.7 69.4L25 47.7l3.9-3.9 14.8 12.6 28.6-25.8 2.7 2.7z"/></g><metadata xmlns:d="https://loading.io/stock/"><d:name>ok</d:name><d:tags>ok,confirm,ready,positive,check,right,correct,affirmative,success,hexagon,form</d:tags><d:license>by</d:license><d:slug>nzejk4</d:slug></metadata></svg>