<?xml version="1.0"?><svg version="1.1" id="Layer_1" xmlns="http://www.w3.org/2000/svg" x="0" y="0" viewBox="0 0 100 100" xml:space="preserve"><path d="M88.18 83.466l-4.22-1.789a1.306 1.306 0 0 0-1.713.693l-1.789 4.22c-.454 1.072-1.978 1.059-2.414-.02L63.692 51.085l11.857-4.796L89.9 81.773c.438 1.079-.649 2.147-1.72 1.693z" fill="#d65a62"/><linearGradient id="SVGID_1_" gradientUnits="userSpaceOnUse" x1="45.869" y1="19.5" x2="45.869" y2="71"><stop offset="0" stop-color="#f4e6c8"/><stop offset="1" stop-color="#f5e169"/></linearGradient><circle cx="45.869" cy="48.484" r="35.869" fill="url(#SVGID_1_)"/><circle cx="31.073" cy="38.09" r="6.726" fill="#493727"/><circle cx="60.666" cy="38.09" r="6.726" fill="#493727"/><path d="M10.077 50.726c1.158 18.765 16.736 33.628 35.793 33.628s34.634-14.863 35.793-33.628H10.077z" fill="#323232"/><path d="M77.899 32.343c-5.908-11.7-18.028-19.728-32.03-19.728s-26.122 8.028-32.03 19.728h64.06z" fill="#323232"/><path d="M13.84 32.342h64.059a36.006 36.006 0 0 0-8.571-10.964H22.411a36.018 36.018 0 0 0-8.571 10.964z" fill="#d65a62"/><metadata xmlns:d="https://loading.io/stock/">
<d:name>thief face</d:name>
<d:tags>thief face,ninja,scout,spy,emotion,emoji,face,feeling</d:tags>
<d:license>by</d:license>
<d:slug>f2df0q</d:slug>
</metadata></svg>